<svg width="193" height="465" viewBox="0 0 193 465" fill="none" xmlns="http://www.w3.org/2000/svg">
<g clip-path="url(#clip0_424_84)">
<path fill-rule="evenodd" clip-rule="evenodd" d="M46.6165 208.599L51.1528 136.985L3.81686 121.31L15.1305 2L189.304 45.788C189.304 45.788 194.486 157.466 187.137 156.711C166.725 154.612 91.3844 146.239 91.3844 146.239L46.6165 208.599Z" fill="#82AFC9"/>
<path fill-rule="evenodd" clip-rule="evenodd" d="M29.0008 353.055C6.87601 364.922 4.35316 387.574 12.2741 403.941C20.1907 420.306 39.5958 427.35 39.5958 427.35L44.949 444.351C54.9829 442.094 64.6022 439.854 74.4521 438.585L73.314 422.384C73.314 422.384 93.0292 394.309 80.4456 371.011C67.8653 347.712 51.1256 341.188 29.0008 353.055" fill="#B5CEDE"/>
<path d="M58.1053 456.202L34.0813 390.921L42.6034 399.014L45.7139 387.678L53.0057 397.37L63.5012 381.047L67.2793 453.871" stroke="#FEFEFE" stroke-width="1.117" stroke-linecap="round" stroke-linejoin="round"/>
<path fill-rule="evenodd" clip-rule="evenodd" d="M50.3961 461.61L75.6325 455.453L74.2869 437.805C64.4065 439.034 54.7654 441.264 44.7115 443.506L50.3961 461.61Z" fill="#82AFC9"/>
<path d="M20.7833 194.313C-4.92375 227.285 -0.820234 263.698 20.7833 279.341C42.3868 294.983 68.6086 306.487 61.3868 326.107" stroke="white" stroke-width="2" stroke-linejoin="round" stroke-dasharray="10 5"/>
</g>
<defs>
<clipPath id="clip0_424_84">
<rect width="193" height="465" fill="white"/>
</clipPath>
</defs>
</svg>
